<svg enable-background="new 0 0 100 100" height="512" viewBox="0 0 100 100" width="512" xmlns="http://www.w3.org/2000/svg"><path d="m78.7463989 17.0566406h-57.4926758c-2.9990234 0-5.4302979 2.4311523-5.4302979 5.4301758v55.0263672c0 2.9990234 2.4312744 5.4301758 5.4302979 5.4301758h57.4926758c2.9990234 0 5.4301758-2.4311523 5.4301758-5.4301758v-55.0263672c0-2.9990234-2.4311523-5.4301758-5.4301758-5.4301758z" fill="#ededed"/><path d="m78.7463989 17.0566406h-57.4926758c-2.9990234 0-5.4302979 2.4311523-5.4302979 5.4301758v7.1779785h68.3531494v-7.1779785c.0000001-2.9990234-2.4311522-5.4301758-5.4301757-5.4301758z" fill="#feda6f"/><path d="m24.678944 37.612686h50.642113v19.626848h-50.642113z" fill="#4abba4"/><g fill="#dbd8dd"><path d="m25.0755863 62.4850197 5.927824 5.9277611-5.927824 5.9224243z"/><path d="m37.8154945 61.5952301-5.9223613 5.9278946-5.9278241-5.9278946z"/><path d="m31.8931332 69.3024368 5.9223613 5.9224243h-11.8501854z"/><path d="m38.6997528 62.4903526v11.8393898l-5.9168968-5.9169616z"/><path d="m43.1879158 62.4850197 5.9278259 5.9277611-5.9278259 5.9224243z"/><path d="m55.9278259 61.5952301-5.9223633 5.9278946-5.9278221-5.9278946z"/><path d="m50.0054626 69.3024368 5.9223633 5.9224243h-11.8501854z"/><path d="m56.8120842 62.4903526v11.8393898l-5.9168968-5.9169616z"/><path d="m61.3002472 62.4850197 5.9278259 5.9277611-5.9278259 5.9224243z"/><path d="m74.0401535 61.5952301-5.9223633 5.9278946-5.9278221-5.9278946z"/><path d="m68.1177902 69.3024368 5.9223633 5.9224243h-11.8501854z"/><path d="m74.9244156 62.4903526v11.8393898l-5.9169006-5.9169616z"/></g><g fill="#fff"><path d="m34.1416016 51.7239609v-8.5898438h3.2226562c.65625 0 1.1826172.0869141 1.5791016.2607422s.7070312.4414062.9316406.8027344.3369141.7392578.3369141 1.1337891c0 .3671875-.0996094.7128906-.2988281 1.0371094s-.5.5859375-.9023438.7851562c.5195312.1523438.9189453.4121094 1.1982422.7792969s.4189453.8007812.4189453 1.3007812c0 .4023438-.0849609.7763672-.2548828 1.1220703s-.3798828.6123047-.6298828.7998047-.5634766.3291016-.9404297.4248047-.8388672.1435547-1.3857422.1435547zm1.1367187-4.9804688h1.8574219c.5039062 0 .8652344-.0332031 1.0839844-.0996094.2890625-.0859375.5068359-.2285156.6533203-.4277344s.2197266-.4492188.2197266-.75c0-.2851562-.0683594-.5361328-.2050781-.7529297s-.3320312-.3652344-.5859375-.4453125-.6894531-.1201172-1.3066406-.1201172h-1.7167969v2.5957032zm0 3.9667969h2.1386719c.3671875 0 .625-.0136719.7734375-.0410156.2617188-.046875.4804688-.125.65625-.234375s.3203125-.2685547.4335938-.4775391.1699219-.4501953.1699219-.7236328c0-.3203125-.0820312-.5986328-.2460938-.8349609s-.3916245-.4023438-.6826172-.4980469c-.2910156-.0957031-.7099609-.1435547-1.2568359-.1435547h-1.9863281v2.953125z"/><path d="m42.1455078 51.7239609v-8.5898438h1.1367188v7.5761719h4.2304688v1.0136719z"/><path d="m48.5205078 47.5403671c0-1.4257812.3828125-2.5419922 1.1484375-3.3486328s1.7539062-1.2099609 2.9648438-1.2099609c.7929688 0 1.5078125.1894531 2.1445312.5683594s1.1220703.9072266 1.4560547 1.5849609.5009766 1.4462891.5009766 2.3056641c0 .8710938-.1757812 1.6503906-.5273438 2.3378906s-.8496094 1.2080078-1.4941406 1.5615234-1.3398438.5302734-2.0859375.5302734c-.8085938 0-1.53125-.1953125-2.1679688-.5859375s-1.1191406-.9238281-1.4472656-1.5996094-.4921875-1.3906249-.4921875-2.1445312zm1.171875.0175782c0 1.0351562.2783203 1.8505859.8349609 2.4462891s1.2548828.8935547 2.0947266.8935547c.8554688 0 1.5595703-.3007812 2.1123047-.9023438s.8291016-1.4550781.8291016-2.5605469c0-.6992188-.1181641-1.3095703-.3544922-1.8310547s-.5820312-.9257812-1.0371094-1.2128906-.9658203-.4306641-1.5322266-.4306641c-.8046875 0-1.4970703.2763672-2.0771713.8291016-.5800552.5527343-.8700943 1.4755859-.8700943 2.7685547z"/><path d="m62.2197266 48.3548203v-1.0078125l3.6386719-.0058594v3.1875c-.5585938.4453125-1.1347656.7802734-1.7285156 1.0048828s-1.203125.3369141-1.828125.3369141c-.84375 0-1.6103516-.1806641-2.2998047-.5419922-.689476-.3613281-1.2099609-.8837891-1.5615234-1.5673828s-.5273438-1.4472656-.5273438-2.2910156c0-.8359375.1748047-1.6162109.5243912-2.3408203.3496323-.7246094.852562-1.2626953 1.508812-1.6142578s1.4121094-.5273438 2.2675781-.5273438c.6210938 0 1.1826172.1005859 1.6845703.3017578s.8955078.4814453 1.1806641.8408203.5019531.828125.6503906 1.40625l-1.0253906.28125c-.1289062-.4375-.2890625-.78125-.4804688-1.03125s-.4648438-.4501953-.8203125-.6005859-.75-.2255859-1.1835938-.2255859c-.5195312 0-.96875.0791016-1.3476562.2373047s-.6845932.3662109-.9169922.6240234c-.2324219.2578125-.4130859.5410156-.5419922.8496094-.21875.53125-.328125 1.1074219-.328125 1.7285156 0 .765625.1318359 1.40625.3955078 1.921875s.6474609.8984375 1.1513672 1.1484375 1.0390625.375 1.6054688.375c.4921875 0 .9726562-.0947266 1.4414062-.2841797s.8242188-.3916016 1.0664062-.6064453v-1.5996094z"/></g><path d="m75.1558228 21.246582c-1.1887207 0-2.1522217.963623-2.1522217 2.1520996 0 1.1887207.963501 2.1520996 2.1522217 2.1520996 1.1884766 0 2.1520996-.9633789 2.1520996-2.1520996 0-1.1884765-.9636231-2.1520996-2.1520996-2.1520996z" fill="#344d5b"/><path d="m68.0106201 21.246582c-1.1887207 0-2.1522217.963623-2.1522217 2.1520996 0 1.1887207.963501 2.1520996 2.1522217 2.1520996 1.1884766 0 2.1520996-.9633789 2.1520996-2.1520996 0-1.1884765-.963623-2.1520996-2.1520996-2.1520996z" fill="#344d5b"/><path d="m60.8654175 21.246582c-1.1887207 0-2.1522217.963623-2.1522217 2.1520996 0 1.1887207.963501 2.1520996 2.1522217 2.1520996 1.1884766 0 2.1520996-.9633789 2.1520996-2.1520996 0-1.1884765-.9636231-2.1520996-2.1520996-2.1520996z" fill="#344d5b"/></svg>